<mxfile host="app.diagrams.net" modified="2024-03-07T14:13:22.057Z" agent="Mozilla/5.0 (Windows NT 10.0; Win64; x64) AppleWebKit/537.36 (KHTML, like Gecko) Chrome/121.0.0.0 Safari/537.36 OPR/107.0.0.0" etag="Giy2MaEsR5rMQlvf51Us" version="24.0.2" type="device">
  <diagram name="Pagina-1" id="ybP0gFC6TrOBKf3DjdUz">
    <mxGraphModel dx="738" dy="389" grid="1" gridSize="10" guides="1" tooltips="1" connect="1" arrows="1" fold="1" page="1" pageScale="1" pageWidth="1169" pageHeight="827" math="0" shadow="0">
      <root>
        <mxCell id="0" />
        <mxCell id="1" parent="0" />
        <mxCell id="FTDwe_TSetRg4eAvgfnx-16" value="" style="group" vertex="1" connectable="0" parent="1">
          <mxGeometry x="190" y="170" width="220" height="270" as="geometry" />
        </mxCell>
        <mxCell id="FTDwe_TSetRg4eAvgfnx-23" value="" style="group" vertex="1" connectable="0" parent="FTDwe_TSetRg4eAvgfnx-16">
          <mxGeometry width="220" height="270" as="geometry" />
        </mxCell>
        <mxCell id="FTDwe_TSetRg4eAvgfnx-3" value="" style="rounded=0;whiteSpace=wrap;html=1;" vertex="1" parent="FTDwe_TSetRg4eAvgfnx-23">
          <mxGeometry width="220" height="270" as="geometry" />
        </mxCell>
        <mxCell id="FTDwe_TSetRg4eAvgfnx-4" value="View" style="text;html=1;align=center;verticalAlign=middle;whiteSpace=wrap;rounded=0;" vertex="1" parent="FTDwe_TSetRg4eAvgfnx-23">
          <mxGeometry x="84.61538461538461" y="54" width="50.76923076923077" height="54" as="geometry" />
        </mxCell>
        <mxCell id="FTDwe_TSetRg4eAvgfnx-22" value="" style="group" vertex="1" connectable="0" parent="FTDwe_TSetRg4eAvgfnx-23">
          <mxGeometry x="8.461538461538462" y="150" width="203.07999999999998" height="108" as="geometry" />
        </mxCell>
        <mxCell id="FTDwe_TSetRg4eAvgfnx-2" value="GUI" style="rounded=0;whiteSpace=wrap;html=1;" vertex="1" parent="FTDwe_TSetRg4eAvgfnx-22">
          <mxGeometry width="101.53846153846153" height="108" as="geometry" />
        </mxCell>
        <mxCell id="FTDwe_TSetRg4eAvgfnx-1" value="CLI" style="rounded=0;whiteSpace=wrap;html=1;" vertex="1" parent="FTDwe_TSetRg4eAvgfnx-23">
          <mxGeometry x="108.46153846153847" y="150" width="103.08" height="108" as="geometry" />
        </mxCell>
        <mxCell id="FTDwe_TSetRg4eAvgfnx-28" value="" style="group" vertex="1" connectable="0" parent="1">
          <mxGeometry x="410" y="170" width="220" height="270" as="geometry" />
        </mxCell>
        <mxCell id="FTDwe_TSetRg4eAvgfnx-14" value="" style="rounded=0;whiteSpace=wrap;html=1;" vertex="1" parent="FTDwe_TSetRg4eAvgfnx-28">
          <mxGeometry width="220" height="270" as="geometry" />
        </mxCell>
        <mxCell id="FTDwe_TSetRg4eAvgfnx-15" value="Data" style="text;html=1;align=center;verticalAlign=middle;whiteSpace=wrap;rounded=0;" vertex="1" parent="FTDwe_TSetRg4eAvgfnx-28">
          <mxGeometry x="80" y="10" width="60" height="30" as="geometry" />
        </mxCell>
        <mxCell id="FTDwe_TSetRg4eAvgfnx-19" value="" style="group" vertex="1" connectable="0" parent="FTDwe_TSetRg4eAvgfnx-28">
          <mxGeometry x="10" y="110" width="200" height="150" as="geometry" />
        </mxCell>
        <mxCell id="FTDwe_TSetRg4eAvgfnx-26" value="" style="group" vertex="1" connectable="0" parent="FTDwe_TSetRg4eAvgfnx-19">
          <mxGeometry width="200" height="150" as="geometry" />
        </mxCell>
        <mxCell id="FTDwe_TSetRg4eAvgfnx-9" value="" style="rounded=0;whiteSpace=wrap;html=1;fillColor=#ffe6cc;strokeColor=#d79b00;" vertex="1" parent="FTDwe_TSetRg4eAvgfnx-26">
          <mxGeometry width="200" height="150" as="geometry" />
        </mxCell>
        <mxCell id="FTDwe_TSetRg4eAvgfnx-18" value="" style="group" vertex="1" connectable="0" parent="FTDwe_TSetRg4eAvgfnx-26">
          <mxGeometry x="10" y="50" width="180" height="90" as="geometry" />
        </mxCell>
        <mxCell id="FTDwe_TSetRg4eAvgfnx-11" value="Abstraction Layer" style="rounded=0;whiteSpace=wrap;html=1;fillColor=#ffe6cc;strokeColor=#d79b00;" vertex="1" parent="FTDwe_TSetRg4eAvgfnx-18">
          <mxGeometry width="180" height="30" as="geometry" />
        </mxCell>
        <mxCell id="FTDwe_TSetRg4eAvgfnx-17" value="" style="group" vertex="1" connectable="0" parent="FTDwe_TSetRg4eAvgfnx-18">
          <mxGeometry y="30" width="180" height="60" as="geometry" />
        </mxCell>
        <mxCell id="FTDwe_TSetRg4eAvgfnx-5" value="MySQL" style="rounded=0;whiteSpace=wrap;html=1;fillColor=#ffe6cc;strokeColor=#d79b00;" vertex="1" parent="FTDwe_TSetRg4eAvgfnx-17">
          <mxGeometry width="60" height="60" as="geometry" />
        </mxCell>
        <mxCell id="FTDwe_TSetRg4eAvgfnx-6" value="SQLite" style="rounded=0;whiteSpace=wrap;html=1;fillColor=#ffe6cc;strokeColor=#d79b00;" vertex="1" parent="FTDwe_TSetRg4eAvgfnx-17">
          <mxGeometry x="60" width="60" height="60" as="geometry" />
        </mxCell>
        <mxCell id="FTDwe_TSetRg4eAvgfnx-7" value="H2" style="rounded=0;whiteSpace=wrap;html=1;fillColor=#ffe6cc;strokeColor=#d79b00;" vertex="1" parent="FTDwe_TSetRg4eAvgfnx-17">
          <mxGeometry x="120" width="60" height="60" as="geometry" />
        </mxCell>
        <mxCell id="FTDwe_TSetRg4eAvgfnx-10" value="EBEAN" style="text;html=1;align=center;verticalAlign=middle;whiteSpace=wrap;rounded=0;" vertex="1" parent="FTDwe_TSetRg4eAvgfnx-26">
          <mxGeometry x="70" y="10" width="60" height="30" as="geometry" />
        </mxCell>
        <mxCell id="FTDwe_TSetRg4eAvgfnx-27" value="" style="group" vertex="1" connectable="0" parent="FTDwe_TSetRg4eAvgfnx-28">
          <mxGeometry x="10" y="50" width="200" height="60" as="geometry" />
        </mxCell>
        <mxCell id="FTDwe_TSetRg4eAvgfnx-8" value="EntityRepositories" style="rounded=0;whiteSpace=wrap;html=1;" vertex="1" parent="FTDwe_TSetRg4eAvgfnx-27">
          <mxGeometry y="30" width="200" height="30" as="geometry" />
        </mxCell>
        <mxCell id="FTDwe_TSetRg4eAvgfnx-13" value="StorageService" style="rounded=0;whiteSpace=wrap;html=1;" vertex="1" parent="FTDwe_TSetRg4eAvgfnx-27">
          <mxGeometry width="200" height="30" as="geometry" />
        </mxCell>
        <mxCell id="FTDwe_TSetRg4eAvgfnx-32" value="" style="rounded=0;whiteSpace=wrap;html=1;" vertex="1" parent="1">
          <mxGeometry x="630" y="170" width="220" height="270" as="geometry" />
        </mxCell>
        <mxCell id="FTDwe_TSetRg4eAvgfnx-30" value="Authentication" style="rounded=0;whiteSpace=wrap;html=1;" vertex="1" parent="1">
          <mxGeometry x="638" y="370" width="205" height="60" as="geometry" />
        </mxCell>
        <mxCell id="FTDwe_TSetRg4eAvgfnx-41" value="Logic" style="text;html=1;align=center;verticalAlign=middle;whiteSpace=wrap;rounded=0;" vertex="1" parent="1">
          <mxGeometry x="710" y="236" width="60" height="30" as="geometry" />
        </mxCell>
      </root>
    </mxGraphModel>
  </diagram>
</mxfile>
